<svg width="267" height="258" viewBox="0 0 267 258" fill="none" xmlns="http://www.w3.org/2000/svg">
<path fill-rule="evenodd" clip-rule="evenodd" d="M7.28857 12.1583L15.3266 24.7633V95.2723C15.3266 156.651 15.1266 166.261 13.7786 169.485C11.7266 174.396 8.66357 177.6 3.98157 179.731C1.86657 180.694 0.516565 181.707 0.981565 181.984C8.35557 186.364 61.5906 216.717 61.8996 216.717C62.1346 216.717 62.3266 188.592 62.3266 154.217C62.3266 119.842 62.6206 91.7173 62.9806 91.7173C63.3396 91.7173 73.9146 97.6263 86.4806 104.848L109.327 117.98V169.881C109.327 211.453 109.056 222.431 107.963 225.046C106.395 228.799 101.29 233.437 97.7496 234.326C96.4166 234.66 95.3266 235.247 95.3266 235.629C95.3266 236.457 131.902 257.717 133.327 257.717C134.752 257.717 171.327 236.457 171.327 235.629C171.327 235.247 170.237 234.66 168.904 234.326C165.364 233.437 160.259 228.799 158.691 225.046C157.599 222.431 157.327 211.46 157.327 169.929V118.076L179.261 105.391C191.324 98.4133 201.899 92.4353 202.761 92.1043C204.172 91.5623 204.327 97.6953 204.327 154.11C204.327 188.544 204.568 216.717 204.862 216.717C205.156 216.717 216.069 210.566 229.112 203.047C272.05 178.297 267.749 181.051 264.478 180.397C260.447 179.591 255.372 175.026 253.207 170.258C251.482 166.461 251.37 161.946 251.349 95.4903L251.327 24.7633L259.365 12.1583C263.785 5.2253 267.048 -0.242692 266.615 0.00830759C169.053 56.4103 134.533 76.1213 133.327 76.1153C132.197 76.1093 67.4126 39.1183 0.038572 0.0103065C-0.394428 -0.241694 2.86857 5.2253 7.28857 12.1583Z" fill="#1B1B1B"/>
</svg>
