<svg width="147" height="166" viewBox="0 0 147 166" fill="none" xmlns="http://www.w3.org/2000/svg">
<path fill-rule="evenodd" clip-rule="evenodd" d="M36.521 20.802L0.521004 41.604L0.260002 84.191L0 126.777L11.272 133.323C17.472 136.923 23.322 140.167 24.272 140.532C25.889 141.152 26.016 138.496 26.26 98.889L26.521 56.583L49.521 43.304C62.171 36 72.971 30.024 73.521 30.024C74.071 30.024 84.871 36 97.521 43.303L120.521 56.583L120.787 84.204L121.052 111.825L99.556 124.157L78.059 136.489L78.04 151.346C78.025 162.832 78.305 166.092 79.271 165.714C79.959 165.445 95.371 156.649 113.521 146.167L146.521 127.11V84.357V41.605L110.521 20.802C90.721 9.361 74.071 0 73.521 0C72.971 0 56.321 9.361 36.521 20.802ZM58.021 49.151C49.496 54.092 41.932 58.472 41.211 58.885C40.359 59.373 45.589 62.903 56.165 68.979C65.11 74.118 72.92 78.322 73.521 78.322C74.666 78.322 107.248 59.851 106.786 59.464C106.64 59.342 100.446 55.749 93.021 51.481C85.596 47.214 78.171 42.922 76.521 41.945L73.521 40.169L58.021 49.151ZM35.26 107.638L35.521 147.287L51.521 156.594C60.321 161.713 67.864 165.921 68.282 165.945C68.701 165.969 68.926 148.18 68.782 126.414L68.521 86.838L52.206 77.414C43.233 72.23 35.69 67.989 35.445 67.989C35.199 67.989 35.116 85.831 35.26 107.638ZM94.521 77.491L78.521 86.834L78.249 106.027C77.994 124.046 78.085 125.178 79.749 124.542C81.689 123.8 102.268 112.097 108.271 108.322L112.021 105.964V86.976C112.021 76.533 111.683 68.025 111.271 68.068C110.859 68.112 103.321 72.352 94.521 77.491Z" fill="#1B1B1B"/>
</svg>
